<svg xmlns="http://www.w3.org/2000/svg" viewBox="0 0 291.83 324.95" id="cute-talking-robot"><g data-name="Layer 2"><g data-name="Layer 1"><path fill="#fff" d="M19.64,320.29A35.75,35.75,0,0,1,2.18,300.08a38.31,38.31,0,0,1,.55-26.93,36.87,36.87,0,0,1,4.6-8.27,162.52,162.52,0,0,1,20.42-82.76A132,132,0,0,1,26,166.27a26.92,26.92,0,0,1,16.22-26.41L42,137.58l-10.24-2.11c-15.06-1.63-17.67-20.22-19.25-31.53a117.55,117.55,0,0,1-1.22-14.78c-.07-13.39,5.77-18.81,11-21l9.08-4.89c6.76-14.65,18.34-27.64,33.34-37.37C72.07,13.56,87.17,4.07,105,1a70.28,70.28,0,0,1,11.86-1c13.77,0,25.78,4.09,34,11.42,16.91,4.32,31.49,12.82,42,24.47l9.86,1.61c15.5,1.27,18.15,20.15,19.76,31.58a115.52,115.52,0,0,1,1.21,14.79c.07,13-5.41,18.46-10.51,20.76L204,110.09a85.41,85.41,0,0,1-19.08,26.38c3.42.89,6.55,1.81,9.36,2.74,11.19,3.67,18.59,14.8,18,27,0,.73-.08,1.46-.13,2.18l.34,0c3.61-3,8.85-15.77,11.42-22.05.2-.48.4-1,.59-1.45l-.27-.82a38.28,38.28,0,0,1,1.36-26.91,35.36,35.36,0,0,1,19-18.84l6.77-2.75a10,10,0,0,1,13.21,6.06l2.26,6.74,5.26-2.75a10,10,0,0,1,13.77,4.9l2.53,5.87a40.05,40.05,0,0,1,2.91,22.69,36.05,36.05,0,0,1-22.18,27.66c-7.78,19-19.59,47.22-48.31,52a49.35,49.35,0,0,1-8,.65,52.64,52.64,0,0,1-13.73-1.86c-8.8,35.2-34.42,83.44-69.58,91.93a45.29,45.29,0,0,1-4.6.85l-.7.09-1.19.15-5.57.52a27.29,27.29,0,0,1-14.94-2.83l-3.78-1.92-1.21-.55-1-.44c-.85-.41-1.72-.86-2.58-1.34l-1-.54c-.82-.47-1.65-1-2.47-1.48l-1-.61c-.82-.54-1.61-1.07-2.4-1.63l-.82-.6c-.85-.62-1.63-1.21-2.4-1.83l-.63-.51c-.88-.72-1.67-1.38-2.45-2.06l-.46-.42A98.11,98.11,0,0,1,70.23,283.7l-1.09-1.34a38.26,38.26,0,0,1-3.93,22.55l-3.75,7.22a9.34,9.34,0,0,1-13.29,3.6l-5.58-3.52-2.91,7a9.35,9.35,0,0,1-12.86,4.74Z"></path><path fill="#fff" d="M264.45,128.67a9.72,9.72,0,0,1,0,7.7c-1.94,4.45-6.79,6.33-10.81,4.19a8.64,8.64,0,0,1-4.14-5.09,9.68,9.68,0,0,1,.34-6.83,8.39,8.39,0,0,1,4.49-4.52L250.92,114A18.62,18.62,0,0,0,241,124a21.49,21.49,0,0,0-.75,15.09,20.65,20.65,0,0,0,2.69,5.47c-1.15,2.63-2.29,5.39-3.47,8.27-5.84,14.26-12.45,30.42-23.72,32.28-7.37,1.22-15.07-2.35-21.62-7a116,116,0,0,0,1.34-12.65c.24-4.64-2.41-8.89-6.46-10.22a170.89,170.89,0,0,0-17.75-4.66c-3.32-.72-7.06-1.47-11.21-2.21-1.29-.58-2.62-1.11-4-1.61l-1.16-.4c-1-.37-2.09-.71-3.17-1-.38-.11-.76-.23-1.14-.33l0-.06-1.19-4.68c19.94-9,35-24.33,41.13-41.72L206,89.38h0c1.31-.22,1.27-8.26-.09-18S202.37,54,201.06,54.27h0l-17-2.79a.09.09,0,0,0,0,.05C174.85,39,159.89,30.18,142.2,26.7h0C136.43,19,122.85,15,107.87,17.6S81,28.44,77.62,37.72h0C61.72,47,49.88,60.39,44.58,75.38a.3.3,0,0,1,0-.08L29.06,83.64h0c-1.31.22-1.27,8.27.1,18S32.68,119,34,118.76h0l17.19,3.53v0c8,10.83,20.27,18.92,34.93,23.15a66.55,66.55,0,0,0-7.87,2.9c-4.18.74-7.92,1.49-11.25,2.2a172.94,172.94,0,0,0-17.75,4.67c-4,1.33-6.7,5.58-6.45,10.22a109.66,109.66,0,0,0,2.74,19.71C29.88,210.2,22.39,240.84,24.45,271.2a19.36,19.36,0,0,0-6.1,8.19,21.48,21.48,0,0,0-.3,15.11,19,19,0,0,0,9.2,10.79l4.1-9.83a8.53,8.53,0,0,1-4.16-4.88,9.71,9.71,0,0,1,.13-6.84A8.49,8.49,0,0,1,31.8,279a7.31,7.31,0,0,1,6.2.15,8.56,8.56,0,0,1,4.29,4.94,9.75,9.75,0,0,1-.52,7.69l8.5,5.37a21.51,21.51,0,0,0,1.16-17A18.93,18.93,0,0,0,42,269.27a17.7,17.7,0,0,0-1.93-.78,130.1,130.1,0,0,1,13-63.86c.32.5.53.8.58.88h0a0,0,0,0,1,0,0c.18,1.11.38,2.24.59,3.38.08.42.17.84.25,1.26.15.72.29,1.44.45,2.16.11.52.23,1,.35,1.55s.29,1.28.44,1.92.29,1.12.43,1.69.31,1.2.47,1.81.33,1.18.49,1.78.33,1.15.5,1.74.37,1.23.56,1.85.35,1.11.53,1.66.41,1.29.63,1.93.35,1.06.54,1.58.46,1.34.7,2l.54,1.48c.26.7.52,1.4.79,2.09.17.44.35.87.52,1.31.3.75.59,1.5.9,2.24.11.27.23.54.35.81q1.84,4.43,4,8.71l.27.57c.4.8.82,1.6,1.23,2.4l.5,1c.4.75.81,1.49,1.22,2.24.19.35.38.7.58,1,.41.73.82,1.44,1.24,2.16l.63,1.05c.42.7.85,1.4,1.28,2.09l.65,1c.44.69.89,1.37,1.34,2.05l.65,1c.46.68.93,1.35,1.4,2l.63.86c.49.68,1,1.36,1.5,2l.52.66c.55.71,1.11,1.42,1.67,2.11l.23.27a81.57,81.57,0,0,0,8.48,8.87l.32.29c.62.55,1.25,1.07,1.88,1.59.19.15.38.32.58.47.6.48,1.2.93,1.81,1.38l.69.5c.59.43,1.2.83,1.8,1.23l.73.46c.61.39,1.22.75,1.83,1.1l.73.4c.62.34,1.25.67,1.89,1l.67.31c.66.31,1.33.6,2,.87l.56.2c.71.28,1.43.54,2.15.76l0,0h0a33.3,33.3,0,0,0,8.19,1.5c.53,0,1.07,0,1.6,0,.77,0,1.55-.07,2.32-.14,0,0,0,0,0,0,.23,0,.45-.07.68-.09l.53-.07a26.75,26.75,0,0,0,2.92-.54c27.1-6.54,52.77-52.48,58.93-87.72h0l.11.1a46.48,46.48,0,0,0,5.09-10.31c7,4.27,14.85,7.39,23.13,7.39a32,32,0,0,0,5.23-.42c19.73-3.25,28.59-24.89,35.7-42.27,1.11-2.7,2.17-5.28,3.22-7.67h.13c6.68,0,13.1-4.13,16.17-11.2a21.49,21.49,0,0,0,0-17Z"></path><path fill="#414c56" d="M212.82 202.6c-20.37 0-38.51-18.8-45.75-27.42l11.5-11.75c4.81 5.72 21.7 24.19 37.17 21.64 11.27-1.86 17.88-18 23.72-32.28 1.81-4.42 3.52-8.59 5.35-12.36l13.82 8.17c-1.58 3.26-3.18 7.17-4.88 11.31-7.11 17.38-16 39-35.7 42.27A32 32 0 01212.82 202.6zM25.2 279.28c-4.4-35.38 4.43-71.86 24.24-100.1l12.4 10.59C44.85 214 37 246.58 40.74 276.92z"></path><path fill="#414c56" d="M27.25 305.29a19 19 0 01-9.2-10.79 21.48 21.48 0 01.3-15.11 18.71 18.71 0 019.9-10.45 16.29 16.29 0 0113.7.33 18.93 18.93 0 019.48 10.93 21.51 21.51 0 01-1.16 17l-8.5-5.37a9.75 9.75 0 00.52-7.69A8.56 8.56 0 0038 279.17a7.31 7.31 0 00-6.2-.15 8.49 8.49 0 00-4.48 4.72 9.71 9.71 0 00-.13 6.84 8.53 8.53 0 004.16 4.88zM257.1 152.25a16.46 16.46 0 01-7.72-1.94 19.12 19.12 0 01-9.14-11.26A21.49 21.49 0 01241 124a18.62 18.62 0 019.93-10l3.4 10.14a8.39 8.39 0 00-4.49 4.52 9.68 9.68 0 00-.34 6.83 8.64 8.64 0 004.14 5.09c4 2.14 8.87.26 10.81-4.19a9.72 9.72 0 000-7.7l8.86-4.63a21.49 21.49 0 010 17C270.2 148.12 263.78 152.25 257.1 152.25z"></path><path fill="#edf2f4" d="M185.89,190.64a86.83,86.83,0,0,1-1.4,14.78c-6.16,35.23-31.83,81.18-58.93,87.72a27.2,27.2,0,0,1-6.43.79c-.53,0-1.07,0-1.6,0-31.68-1.62-57.9-51-63.88-88.38a0,0,0,0,0,0,0,96.13,96.13,0,0,1-1.27-14.87c0-17.84,6.59-29.84,17.41-37.53a50.8,50.8,0,0,1,8.46-4.8c11.29-5.1,25.48-7.1,40.89-7.1.74,0,1.48,0,2.23,0,2.87,0,5.69.14,8.46.33,11.26.76,21.58,2.85,30.22,6.75a51.22,51.22,0,0,1,8.43,4.8C179.29,160.8,185.89,172.8,185.89,190.64Z"></path><path fill="#a5b2b5" d="M124.78 245.73c-1 5.93-2 11.79-3.1 17.54-1.41 7.52-2.8 14.19-5.5 19.79a25 25 0 01-3.62 5.62l-3.22 3.72c-27.92-8.68-50.23-52.78-55.69-86.88a0 0 0 000 0 96.13 96.13 0 01-1.27-14.87c0-8.6 1.52-15.85 4.33-21.9a66 66 0 001 7.91h0c5.6 29.43 30.18 68.32 59.87 69.61l1.5 0A30.06 30.06 0 00124.78 245.73zM185.89 190.64a86.74 86.74 0 01-1.4 14.78c-6.16 35.24-31.83 81.18-58.93 87.72a28.29 28.29 0 01-4.13.7 18.72 18.72 0 011.54-2.9c.17-.28.35-.55.53-.83a14.41 14.41 0 011.72-3.52l.14-.22c0-.24.1-.48.14-.72.43-2.19.88-4.27 1.49-6.41 1.43-5 3-10 4.32-15.05.21-.8.46-1.57.73-2.32l.45-3.27c.79-5.45 1.58-10.94 2.45-16.42 21.55-10.91 40.42-41.45 45.46-65.59a66.45 66.45 0 001.15-7.85C184.36 174.79 185.89 182 185.89 190.64z"></path><path fill="#edf2f4" d="M78.27 148.3A89.75 89.75 0 0177 158.76c-2.21 12.46-8 33.31-23.34 46.76a0 0 0 000 0c-.4-.55-9.46-13.32-10.85-40.11-.25-4.64 2.41-8.89 6.45-10.22A172.94 172.94 0 0167 150.51c3.33-.71 7.07-1.46 11.25-2.2zM195.46 165.4c-1.42 27.39-10.86 40.12-10.86 40.12l-.11-.1c-15.22-13.44-21-34.21-23.23-46.65A89 89 0 01160 148.3H160c4.15.74 7.89 1.49 11.21 2.21A170.89 170.89 0 01189 155.18C193.05 156.51 195.7 160.76 195.46 165.4z"></path><path fill="#a5b2b5" d="M171.25,150.52c-.22.23-.46.45-.7.68-.68.66-1.38,1.3-2.08,1.91A74.53,74.53,0,0,1,77,158.76a73.08,73.08,0,0,1-7.21-5.65c-.7-.61-1.4-1.25-2.08-1.91-.24-.23-.48-.45-.71-.69,3.33-.71,7.07-1.46,11.25-2.2,11.29-5.1,25.48-7.1,40.89-7.1s29.61,2,40.91,7.1C164.19,149.05,167.93,149.8,171.25,150.52Z"></path><path fill="#a5b2b5" d="M136.84,148.89c-2.06.75-4.12,1.46-6.2,2.07A37.47,37.47,0,0,1,139.07,168c1.38,6.81,1,13.8.23,21.48-9.51,2.4-16.2,9.83-16.2,18.36,0,7.15,4.58,13.55,11.88,16.87-1.92,13.48-4.12,26.94-6.58,40.06-1.52,8.08-3,15.31-6.15,21.78a33.06,33.06,0,0,1-4.72,7.31c.53,0,1.07,0,1.6,0a27.2,27.2,0,0,0,6.43-.79c.67-1.11,1.3-2.28,1.89-3.5,3.47-7.23,5.15-15.25,6.7-23.51,2.65-14.09,5-28.57,7-43l.38-2.78-2.44-.82C133,217.43,129,212.88,129,207.88c0-5.93,5.63-11.15,13.41-12.41l2.24-.36.25-2.47c.94-8.88,1.64-17.54-.07-26A44.56,44.56,0,0,0,136.84,148.89Z"></path><ellipse cx="87.85" cy="199.05" fill="#54606d" rx="11.29" ry="16.49"></ellipse><ellipse cx="91.86" cy="194.02" fill="#a5b2b5" rx="2.87" ry="5.19" transform="rotate(-16.86 91.826 193.967)"></ellipse><path fill="#54606d" d="M87.85,144.88s31.28,35.91,62.79,0L145.86,126h-54Z"></path><path fill="#a5b2b5" d="M142.22,26.69c-31.39,15.5-64.6,11-64.6,11C81,28.44,92.89,20.16,107.87,17.6S136.43,19,142.22,26.69Z"></path><ellipse cx="117.59" cy="86.89" fill="#edf2f4" rx="76.77" ry="60.98" transform="rotate(-12.61 117.603 86.878)"></ellipse><path fill="#54606d" d="M175.49,76.92c1.78,12.68-6.17,23.55-11.07,28.91a65.36,65.36,0,0,1-16.95,13c-6.42-10-16.71-15.7-27.34-13.89s-18.86,10.7-22.24,22.36a60.88,60.88,0,0,1-19.74-6.79C72,117.09,61.46,109.38,59.68,96.7s6.17-23.55,11.06-28.91A63.74,63.74,0,0,1,85.11,56.22C106.64,43.31,134.8,40.5,157,53.06,163.15,56.53,173.71,64.25,175.49,76.92Z"></path><path fill="#edf2f4" d="M52.27,99.8q.33,2.94.39,5.94a77.47,77.47,0,0,1-1.48,16.55L34,118.76,29.06,83.64,44.54,75.3a67.68,67.68,0,0,1,3.89,8.47A65.07,65.07,0,0,1,52.27,99.8Z"></path><path fill="#a5b2b5" d="M52.66 105.74a77.47 77.47 0 01-1.48 16.55L34 118.76l-1.67-12zM52.27 99.8l-20.53 2.88-.87-6.21c7.42-3 13.65-7 17.56-12.7A65.07 65.07 0 0152.27 99.8z"></path><ellipse cx="31.53" cy="101.2" fill="#edf2f4" rx="2.4" ry="17.73" transform="rotate(-7.96 31.52 101.195)"></ellipse><path fill="#edf2f4" d="M183.37,77.41q.49,2.91,1.26,5.79a74.07,74.07,0,0,0,6,15.28L206,89.38l-4.93-35.11-17-2.79a68.62,68.62,0,0,0-1.39,9.37A66.31,66.31,0,0,0,183.37,77.41Z"></path><path fill="#a5b2b5" d="M184.63 83.2a74.07 74.07 0 006 15.28L206 89.38l-1.68-11.95zM183.37 77.41l20.36-4.11-.87-6.2c-7.9-.41-14.92-2.08-20.22-6.25A66.31 66.31 0 00183.37 77.41z"></path><ellipse cx="203.53" cy="71.82" fill="#edf2f4" rx="2.4" ry="17.73" transform="rotate(-7.96 203.48 71.782)"></ellipse><path fill="#414c56" d="M169.67,77.92c1.38,9.83-5.29,18.81-9.39,23.3A56.75,56.75,0,0,1,149,110.64c-7.89-9.35-18.89-13.91-29.73-12.06s-20.06,9.87-25,21.41a52.85,52.85,0,0,1-13.38-5.2c-5.14-2.91-14-9.25-15.34-19.08,0-.2-.06-.4-.08-.61A470.84,470.84,0,0,1,169.59,77.39C169.62,77.57,169.65,77.74,169.67,77.92Z"></path><ellipse cx="89.08" cy="88.6" fill="#e8ad72" rx="8.44" ry="15" transform="rotate(-7.2 89.13 88.666)"></ellipse><ellipse cx="145.24" cy="79.01" fill="#e8ad72" rx="8.44" ry="15" transform="rotate(-7.2 145.347 79.038)"></ellipse></g></g></svg>